<svg width="259" height="47" viewBox="0 0 259 47" fill="none" xmlns="http://www.w3.org/2000/svg">
<path d="M43.5157 23.5068C43.3951 23.3411 43.2764 23.1715 43.1606 23C43.2764 22.8285 43.3951 22.659 43.5153 22.4936C44.1296 21.6502 44.1621 20.5787 43.6001 19.6971C43.0376 18.8146 42.0515 18.3913 41.0265 18.5922C40.7651 18.6435 40.5042 18.699 40.2435 18.757C40.4689 18.6137 40.6926 18.4685 40.9137 18.32C41.7806 17.7376 42.1786 16.741 41.9523 15.719C41.7262 14.6979 40.9454 13.963 39.9145 13.801C39.7128 13.7694 39.5091 13.7336 39.3059 13.6941C39.2665 13.4921 39.2307 13.2884 39.1988 13.0853C39.0369 12.0548 38.3024 11.2742 37.2818 11.0481C36.2598 10.8217 35.2628 11.2196 34.6798 12.0868C34.5313 12.3078 34.386 12.5315 34.2427 12.7568C34.3007 12.4962 34.3562 12.2354 34.4074 11.9742C34.6088 10.9491 34.1856 9.96272 33.303 9.40001C32.4214 8.83781 31.3496 8.87023 30.506 9.48465C30.3396 9.60589 30.1703 9.72462 29.9998 9.83955C29.8288 9.7241 29.6595 9.60537 29.4938 9.48459C28.6504 8.87023 27.5786 8.83781 26.6969 9.40001C25.8143 9.96272 25.3912 10.9491 25.5925 11.974C25.6437 12.2353 25.6992 12.4962 25.7572 12.7568C25.6139 12.5314 25.4686 12.3077 25.3201 12.0867C24.7371 11.2196 23.74 10.8217 22.7181 11.048C21.6975 11.2741 20.963 12.0547 20.8011 13.0853C20.7692 13.2884 20.7334 13.4921 20.694 13.6941C20.4908 13.7336 20.2871 13.7693 20.0853 13.801C19.0545 13.963 18.2737 14.6979 18.0476 15.719C17.8213 16.7409 18.2193 17.7376 19.0861 18.3199C19.3071 18.4684 19.5308 18.6136 19.7562 18.7569C19.4956 18.6989 19.2347 18.6434 18.9734 18.5922C17.9486 18.3912 16.9624 18.8146 16.3998 19.6971C15.8379 20.5787 15.8704 21.6502 16.4843 22.4931C16.6048 22.6587 16.7235 22.8283 16.8393 22.9999C16.7236 23.1714 16.6049 23.3409 16.4847 23.5063C15.8703 24.3493 15.8378 25.4207 16.3997 26.3024C16.8697 27.04 17.6354 27.457 18.4725 27.457C18.6373 27.457 18.8048 27.4409 18.9735 27.4078C19.2347 27.3565 19.4956 27.301 19.7562 27.2431C19.5309 27.3864 19.3072 27.5316 19.0862 27.6801C18.2191 28.2626 17.8212 29.2593 18.0477 30.2814C18.274 31.3023 19.0548 32.0368 20.0855 32.1983C20.2839 32.2294 20.4876 32.2654 20.694 32.3056C20.7334 32.5077 20.7692 32.7115 20.8012 32.9148C20.9631 33.9453 21.6976 34.7258 22.7181 34.9519C22.9078 34.9939 23.0967 35.0145 23.2822 35.0145C24.096 35.0145 24.8455 34.6194 25.3203 33.9132C25.4688 33.6922 25.614 33.4685 25.7573 33.2432C25.6993 33.5037 25.6439 33.7646 25.5926 34.0258C25.3913 35.0509 25.8144 36.0372 26.697 36.5999C27.5788 37.1621 28.6505 37.1298 29.4949 36.5147C29.6568 36.3963 29.8258 36.2777 30 36.1603C30.1736 36.2772 30.3429 36.396 30.5062 36.5154C30.949 36.8379 31.4545 37.0001 31.9625 37C32.4223 37 32.8843 36.8671 33.3032 36.6C34.1858 36.0373 34.609 35.0509 34.4076 34.026C34.3564 33.7647 34.3009 33.5038 34.2429 33.2432C34.3862 33.4686 34.5315 33.6924 34.68 33.9134C35.1548 34.6196 35.9041 35.0146 36.718 35.0145C36.9035 35.0145 37.0924 34.994 37.282 34.952C38.3026 34.7259 39.0371 33.9453 39.199 32.9148C39.2309 32.7116 39.2667 32.508 39.3061 32.3059C39.5078 32.2667 39.7115 32.2308 39.9146 32.1984C40.9454 32.0369 41.7262 31.3024 41.9525 30.2814C42.1789 29.2594 41.781 28.2626 40.9139 27.6801C40.6928 27.5316 40.4691 27.3864 40.2438 27.2431C40.5045 27.3011 40.7655 27.3565 41.0268 27.4078C41.1954 27.4409 41.3629 27.457 41.5277 27.457C42.3647 27.457 43.1304 27.04 43.6005 26.3024C44.1621 25.4207 44.1296 24.3493 43.5157 23.5068ZM30 26.5349C28.0507 26.5349 26.4649 24.9491 26.4649 22.9999C26.4649 21.0511 28.0501 19.4656 29.9987 19.4649C29.9991 19.4649 29.9994 19.4649 29.9996 19.4649C30 19.4649 30.0004 19.4649 30.0008 19.4649C31.9484 19.4653 33.533 21.0489 33.535 22.9962C33.535 22.9975 33.5348 22.9987 33.5348 22.9999C33.5348 23.0012 33.535 23.0024 33.535 23.0036C33.5329 24.9512 31.948 26.5349 30 26.5349ZM35.5873 12.6967C35.9773 12.1165 36.5962 12.016 37.0453 12.1155C37.4933 12.2148 38.0104 12.5662 38.1186 13.2549C38.1722 13.5959 38.2362 13.9386 38.3088 14.2734C38.3544 14.4831 38.5182 14.6467 38.728 14.6919C39.0656 14.7646 39.4078 14.8283 39.745 14.8812C40.434 14.9894 40.7856 15.507 40.8848 15.9553C40.9842 16.4043 40.8839 17.0229 40.304 17.4124C38.363 18.7162 36.2454 19.8146 34.0032 20.6812C33.8928 20.4914 33.7695 20.3103 33.6341 20.1388L35.9847 17.7883C36.1982 17.5748 36.1982 17.2287 35.9847 17.0152C35.7712 16.8016 35.425 16.8016 35.2115 17.0152L32.8609 19.3656C32.6893 19.2303 32.5081 19.1069 32.3183 18.9965C33.1853 16.7539 34.2838 14.6366 35.5873 12.6967ZM27.2848 10.322C27.6718 10.0752 28.2863 9.95777 28.85 10.3683C29.1275 10.5705 29.4145 10.7675 29.7033 10.9538C29.8835 11.0701 30.1151 11.0702 30.2955 10.9541C30.5831 10.769 30.8706 10.5719 31.1498 10.3684C31.7135 9.95777 32.3281 10.0751 32.7152 10.3219C33.1029 10.5692 33.4692 11.0777 33.3346 11.7635C32.8843 14.0581 32.164 16.3313 31.1917 18.5278C30.982 18.4719 30.7664 18.4309 30.5463 18.4048V15.0828C30.5463 14.7809 30.3015 14.5361 29.9996 14.5361C29.6977 14.5361 29.4529 14.7809 29.4529 15.0828V18.4049C29.2328 18.431 29.0174 18.472 28.8078 18.5279C27.8357 16.3306 27.1156 14.0573 26.6655 11.7635C26.5307 11.0777 26.897 10.5692 27.2848 10.322ZM19.1152 15.9553C19.2145 15.5071 19.566 14.9894 20.255 14.8812C20.5923 14.8283 20.9344 14.7646 21.272 14.6919C21.4817 14.6467 21.6457 14.4831 21.6912 14.2734C21.7639 13.9386 21.8279 13.5959 21.8814 13.2549C21.9896 12.5662 22.5068 12.2149 22.9547 12.1156C23.4037 12.0161 24.0227 12.1165 24.4127 12.6967C25.7163 14.6366 26.8148 16.7539 27.6818 18.9965C27.4918 19.1069 27.3104 19.2304 27.1387 19.3659L24.7878 17.0152C24.5744 16.8017 24.2282 16.8017 24.0147 17.0152C23.8011 17.2287 23.8011 17.5748 24.0147 17.7883L26.3655 20.1391C26.2303 20.3106 26.1069 20.4917 25.9966 20.6814C23.7538 19.8146 21.6363 18.7161 19.696 17.4124C19.1162 17.0228 19.0158 16.4043 19.1152 15.9553ZM18.7631 26.3349C18.0776 26.4693 17.5691 26.1027 17.322 25.7149C17.0753 25.3278 16.958 24.7135 17.3688 24.1499C17.5702 23.8729 17.767 23.5859 17.9538 23.2967C18.0704 23.1162 18.0704 22.884 17.9538 22.7034C17.7669 22.414 17.5701 22.127 17.3686 21.8499C16.958 21.2862 17.0754 20.6719 17.322 20.2849C17.5691 19.8972 18.0775 19.5308 18.7631 19.6652C21.0578 20.1154 23.3312 20.8358 25.5279 21.8082C25.472 22.0178 25.431 22.2333 25.4049 22.4533H22.0824C21.7804 22.4533 21.5356 22.6981 21.5356 23C21.5356 23.3019 21.7804 23.5467 22.0824 23.5467H25.4049C25.4309 23.7668 25.4719 23.9823 25.5278 24.1918C23.3312 25.1642 21.0578 25.8846 18.7631 26.3349ZM24.4127 33.3033C24.0227 33.8836 23.4037 33.984 22.9546 33.8845C22.5067 33.7852 21.9895 33.4338 21.8814 32.7452C21.8278 32.404 21.7638 32.0613 21.6912 31.7266C21.6456 31.517 21.4817 31.3533 21.272 31.3081C20.9267 31.2338 20.5845 31.1698 20.2549 31.1181C19.5661 31.0101 19.2146 30.4929 19.1153 30.0447C19.0158 29.5957 19.1161 28.9771 19.6961 28.5875C21.6363 27.2838 23.7539 26.1853 25.9967 25.3185C26.107 25.5082 26.2304 25.6893 26.3656 25.8608L24.0147 28.2116C23.8012 28.4252 23.8012 28.7713 24.0147 28.9848C24.1215 29.0916 24.2613 29.1449 24.4013 29.1449C24.5412 29.1449 24.6811 29.0916 24.7878 28.9848L27.1388 26.6339C27.3104 26.7694 27.4918 26.8929 27.6819 27.0034C26.8153 29.2453 25.7168 31.3626 24.4127 33.3033ZM32.7152 35.6781C32.3282 35.9249 31.7136 36.0423 31.1507 35.6323C30.8793 35.4337 30.5915 35.2364 30.2955 35.0459C30.1151 34.9298 29.8835 34.9299 29.7033 35.0462C29.406 35.238 29.1187 35.4352 28.8501 35.6316C28.2864 36.0423 27.6718 35.9249 27.2848 35.6781C26.897 35.4309 26.5307 34.9224 26.6654 34.2365C27.1156 31.9426 27.8357 29.6693 28.8078 27.472C29.0174 27.5279 29.2328 27.5689 29.4529 27.595V30.9172C29.4529 31.2191 29.6977 31.4639 29.9996 31.4639C30.3015 31.4639 30.5463 31.2191 30.5463 30.9172V27.595C30.7664 27.569 30.9819 27.528 31.1915 27.4721C32.1638 29.6686 32.8842 31.9419 33.3345 34.2366C33.4693 34.9224 33.103 35.4309 32.7152 35.6781ZM40.8848 30.0448C40.7855 30.4929 40.434 31.0102 39.7439 31.1183C39.4025 31.1726 39.0608 31.2365 38.728 31.3081C38.5183 31.3533 38.3544 31.517 38.3089 31.7266C38.2363 32.0613 38.1722 32.404 38.1187 32.7451C38.0105 33.4338 37.4933 33.7852 37.0454 33.8844C36.5962 33.9838 35.9774 33.8834 35.5874 33.3034C34.2833 31.3626 33.1848 29.2453 32.3183 27.0034C32.5081 26.893 32.6894 26.7696 32.8609 26.6343L35.2116 28.9849C35.3183 29.0916 35.4582 29.145 35.5981 29.145C35.738 29.145 35.878 29.0916 35.9847 28.9849C36.1982 28.7713 36.1982 28.4252 35.9847 28.2117L33.6341 25.8612C33.7694 25.6896 33.8928 25.5084 34.0032 25.3186C36.2434 26.184 38.361 27.2824 40.304 28.5876C40.8839 28.9773 40.9843 29.5958 40.8848 30.0448ZM42.6781 25.7149C42.431 26.1027 41.9227 26.4693 41.237 26.3349C38.9422 25.8846 36.6687 25.1644 34.472 24.1921C34.528 23.9824 34.569 23.7669 34.5951 23.5467H37.917C38.2189 23.5467 38.4637 23.3019 38.4637 23C38.4637 22.6981 38.2189 22.4533 37.917 22.4533H34.5951C34.5691 22.2332 34.528 22.0176 34.4721 21.808C36.6688 20.8357 38.9422 20.1154 41.237 19.6652C41.9224 19.5308 42.4309 19.8971 42.6781 20.2849C42.9248 20.6719 43.0421 21.2862 42.6313 21.8502C42.43 22.127 42.2332 22.414 42.0463 22.7034C41.9297 22.8839 41.9296 23.1161 42.0463 23.2966C42.2331 23.5859 42.43 23.8729 42.6317 24.1503C43.0421 24.7135 42.9248 25.3278 42.6781 25.7149Z" fill="white" stroke="white" stroke-width="0.1"/>
<path d="M29.9997 20.1213C28.4124 20.1213 27.121 21.4127 27.121 23C27.121 24.5873 28.4124 25.8786 29.9997 25.8786C31.587 25.8786 32.8784 24.5873 32.8784 23C32.8784 21.4127 31.587 20.1213 29.9997 20.1213ZM29.9997 24.7852C29.0153 24.7852 28.2144 23.9844 28.2144 23C28.2144 22.0156 29.0153 21.2147 29.9997 21.2147C30.9841 21.2147 31.785 22.0156 31.785 23C31.785 23.9844 30.9841 24.7852 29.9997 24.7852Z" fill="white" stroke="white" stroke-width="0.1"/>
<path d="M63.7047 24.84L67.8247 15H70.5447L63.7047 29.78L56.8647 15H59.5847L63.7047 24.84ZM71.9133 16.14C71.9133 15.7667 72.0466 15.4533 72.3133 15.2C72.5933 14.9467 72.9133 14.82 73.2733 14.82C73.6599 14.82 73.9799 14.9467 74.2333 15.2C74.4999 15.4533 74.6333 15.7667 74.6333 16.14C74.6333 16.5 74.4999 16.8133 74.2333 17.08C73.9799 17.3333 73.6599 17.46 73.2733 17.46C72.9133 17.46 72.5933 17.3333 72.3133 17.08C72.0466 16.8133 71.9133 16.5 71.9133 16.14ZM72.2133 19.8H74.3333V29H72.2133V19.8ZM76.6058 24.4C76.6058 23.4533 76.8191 22.62 77.2458 21.9C77.6858 21.18 78.2791 20.62 79.0258 20.22C79.7724 19.8067 80.6191 19.6 81.5658 19.6C82.5124 19.6 83.3524 19.8067 84.0858 20.22C84.8324 20.62 85.4258 21.18 85.8658 21.9C86.3058 22.62 86.5258 23.4533 86.5258 24.4C86.5258 25.3333 86.3058 26.1667 85.8658 26.9C85.4258 27.62 84.8324 28.1867 84.0858 28.6C83.3524 29 82.5124 29.2 81.5658 29.2C80.6191 29.2 79.7724 29 79.0258 28.6C78.2791 28.1867 77.6858 27.62 77.2458 26.9C76.8191 26.1667 76.6058 25.3333 76.6058 24.4ZM78.8258 24.4C78.8258 24.9733 78.9458 25.48 79.1858 25.92C79.4258 26.3467 79.7524 26.6867 80.1658 26.94C80.5791 27.18 81.0458 27.3 81.5658 27.3C82.0724 27.3 82.5324 27.18 82.9458 26.94C83.3724 26.6867 83.7058 26.3467 83.9458 25.92C84.1858 25.48 84.3058 24.9733 84.3058 24.4C84.3058 23.8267 84.1858 23.32 83.9458 22.88C83.7058 22.44 83.3724 22.1 82.9458 21.86C82.5324 21.62 82.0724 21.5 81.5658 21.5C81.0458 21.5 80.5791 21.62 80.1658 21.86C79.7524 22.1 79.4258 22.44 79.1858 22.88C78.9458 23.32 78.8258 23.8267 78.8258 24.4ZM88.5753 13.4H90.7353V29H88.5753V13.4ZM94.8572 26.14C94.8572 26.4467 94.9305 26.7133 95.0772 26.94C95.2239 27.1533 95.4239 27.3133 95.6772 27.42C95.9439 27.5267 96.2439 27.58 96.5772 27.58C97.0039 27.58 97.3905 27.4933 97.7372 27.32C98.0972 27.1467 98.3839 26.8933 98.5972 26.56C98.8239 26.2133 98.9372 25.8133 98.9372 25.36L99.2572 26.56C99.2572 27.1467 99.0839 27.64 98.7372 28.04C98.4039 28.4267 97.9772 28.72 97.4572 28.92C96.9505 29.1067 96.4305 29.2 95.8972 29.2C95.3239 29.2 94.7905 29.0867 94.2972 28.86C93.8039 28.6333 93.4105 28.3 93.1172 27.86C92.8239 27.42 92.6772 26.8867 92.6772 26.26C92.6772 25.3667 92.9905 24.66 93.6172 24.14C94.2439 23.6067 95.1305 23.34 96.2772 23.34C96.8905 23.34 97.4172 23.4067 97.8572 23.54C98.3105 23.6733 98.6839 23.8333 98.9772 24.02C99.2705 24.1933 99.4772 24.3533 99.5972 24.5V25.6C99.1839 25.3067 98.7439 25.0933 98.2772 24.96C97.8105 24.8267 97.3172 24.76 96.7972 24.76C96.3439 24.76 95.9772 24.82 95.6972 24.94C95.4172 25.0467 95.2039 25.2 95.0572 25.4C94.9239 25.6 94.8572 25.8467 94.8572 26.14ZM94.1772 22.2L93.2972 20.68C93.7105 20.4267 94.2439 20.18 94.8972 19.94C95.5639 19.7 96.3239 19.58 97.1772 19.58C97.9372 19.58 98.6039 19.6933 99.1772 19.92C99.7639 20.1467 100.224 20.4733 100.557 20.9C100.891 21.3133 101.057 21.8267 101.057 22.44V29H98.9372V22.86C98.9372 22.5667 98.8839 22.3267 98.7772 22.14C98.6839 21.9533 98.5505 21.8 98.3772 21.68C98.2039 21.56 97.9972 21.4733 97.7572 21.42C97.5172 21.3667 97.2572 21.34 96.9772 21.34C96.5505 21.34 96.1439 21.3933 95.7572 21.5C95.3839 21.5933 95.0572 21.7133 94.7772 21.86C94.5105 21.9933 94.3105 22.1067 94.1772 22.2Z" fill="white"/>
</svg>
